HIERARCHY
ROOT root
{
	OFFSET 0.000000 0.000000 0.000000
	CHANNELS 6 Xposition Yposition Zposition Zrotation Yrotation Xrotation
	JOINT lhip
	{
		OFFSET 0.058581 -0.082280 -0.017664
		CHANNELS 3 Zrotation Yrotation Xrotation
		JOINT lknee
		{
			OFFSET 0.043451 -0.386469 0.008037
			CHANNELS 3 Zrotation Yrotation Xrotation
			JOINT lankle
			{
				OFFSET -0.014790 -0.426874 -0.037428
				CHANNELS 3 Zrotation Yrotation Xrotation
				JOINT ltoe
				{
					OFFSET 0.041054 -0.060286 0.122042
					CHANNELS 3 Zrotation Yrotation Xrotation
					End Site
					{
						OFFSET 0.000000 0.000000 0.000000
					}
				}
			}
		}
	}
	JOINT rhip
	{
		OFFSET -0.060310 -0.090513 -0.013543
		CHANNELS 3 Zrotation Yrotation Xrotation
		JOINT rknee
		{
			OFFSET -0.043257 -0.383688 -0.004843
			CHANNELS 3 Zrotation Yrotation Xrotation
			JOINT rankle
			{
				OFFSET 0.019056 -0.420046 -0.034562
				CHANNELS 3 Zrotation Yrotation Xrotation
				JOINT rtoe
				{
					OFFSET -0.034840 -0.062106 0.130323
					CHANNELS 3 Zrotation Yrotation Xrotation
					End Site
					{
						OFFSET 0.000000 0.000000 0.000000
					}
				}
			}
		}
	}
	JOINT lowerback
	{
		OFFSET 0.004439 0.124404 -0.038385
		CHANNELS 3 Zrotation Yrotation Xrotation
		JOINT upperback
		{
			OFFSET 0.004488 0.137956 0.026820
			CHANNELS 3 Zrotation Yrotation Xrotation
			JOINT chest
			{
				OFFSET -0.002265 0.056032 0.002855
				CHANNELS 3 Zrotation Yrotation Xrotation
				JOINT lowerneck
				{
					OFFSET -0.013390 0.211636 -0.033468
					CHANNELS 3 Zrotation Yrotation Xrotation
					JOINT upperneck
					{
						OFFSET 0.010113 0.088937 0.050410
						CHANNELS 3 Zrotation Yrotation Xrotation
						End Site
						{
							OFFSET 0.000000 0.000000 0.000000
						}
					}
				}
				JOINT lclavicle
				{
					OFFSET 0.071702 0.114000 -0.018898
					CHANNELS 3 Zrotation Yrotation Xrotation
					JOINT lshoulder
					{
						OFFSET 0.122921 0.045205 -0.019046
						CHANNELS 3 Zrotation Yrotation Xrotation
						JOINT lelbow
						{
							OFFSET 0.255332 -0.015649 -0.022946
							CHANNELS 3 Zrotation Yrotation Xrotation
							JOINT lwrist
							{
								OFFSET 0.265709 0.012698 -0.007375
								CHANNELS 3 Zrotation Yrotation Xrotation
								End Site
								{
									OFFSET 0.000000 0.000000 0.000000
								}
							}
						}
					}
				}
				JOINT rclavicle
				{
					OFFSET -0.082954 0.112472 -0.023707
					CHANNELS 3 Zrotation Yrotation Xrotation
					JOINT rshoulder
					{
						OFFSET -0.113228 0.046853 -0.008472
						CHANNELS 3 Zrotation Yrotation Xrotation
						JOINT relbow
						{
							OFFSET -0.260127 -0.014369 -0.031269
							CHANNELS 3 Zrotation Yrotation Xrotation
							JOINT rwrist
							{
								OFFSET -0.269108 0.006794 -0.006027
								CHANNELS 3 Zrotation Yrotation Xrotation
								End Site
								{
									OFFSET 0.000000 0.000000 0.000000
								}
							}
						}
					}
				}
			}
		}
	}
}
MOTION
Frames: 14
Frame Time: 0.033333
0.015201 0.471772 1.002566 173.076455 -2.159724 86.278100 4.186877 4.484203 3.617170 -5.186616 -0.182892 5.599988 -3.205941 6.627922 -8.060293 0.000000 -0.000000 0.000000 -5.457096 -1.362820 -2.073711 0.439997 0.092510 15.757889 6.911895 -3.663088 -11.485844 0.000000 -0.000000 0.000000 1.234043 -1.018365 9.538147 1.055906 -1.750158 -0.624935 -1.130025 -0.305113 1.271976 2.701670 4.484013 -9.366913 -1.583986 -0.770461 3.754208 -27.434708 7.141730 -3.018758 -47.819578 -6.292876 9.340217 -0.196156 -33.048578 9.929047 -14.319099 -21.166994 -7.194358 25.251994 -7.046384 -3.453417 42.602611 6.475834 13.606664 -13.016044 56.624106 4.726711 23.151932 16.271764 -1.068430 
0.013424 0.473175 1.002619 173.711778 -1.997099 86.448119 4.200481 4.047573 3.321004 -5.232995 -0.377046 5.788279 -2.935129 6.709695 -8.223074 0.000000 -0.000000 0.000000 -5.504323 -1.492906 -1.739261 0.536993 -0.252347 15.197767 7.004435 -3.762963 -11.393510 0.000000 -0.000000 0.000000 0.815921 -0.899682 8.756190 1.080113 -1.764232 -0.936709 -1.168790 -0.193493 1.339140 3.027449 4.516532 -9.109251 -1.414934 -0.928640 3.925244 -27.077344 8.069832 -2.891929 -48.589294 -6.292878 9.445088 -0.062524 -34.604296 10.747692 -13.655237 -20.934633 -8.444851 25.877884 -7.991515 -3.364071 45.122417 5.657462 13.973371 -14.260132 54.384711 4.053108 22.960577 15.608937 -0.592864 
0.012080 0.474901 1.002572 174.295309 -1.831336 86.464122 4.280536 3.734329 3.302744 -5.260929 -0.558170 5.758924 -2.831421 6.557044 -8.212650 0.000000 -0.000000 0.000000 -5.480937 -1.668877 -1.195193 0.521407 -0.728419 14.560885 6.937872 -3.674395 -11.268398 0.000000 -0.000000 0.000000 0.316360 -0.702739 7.994581 1.203838 -1.865744 -0.960061 -1.076569 -0.145605 1.309982 3.164725 4.565315 -8.882653 -1.146845 -1.189316 3.884427 -26.689687 8.568194 -2.709518 -49.522408 -6.373221 9.810947 0.275283 -35.264872 10.351338 -12.640157 -20.650447 -10.267689 26.144687 -8.462307 -3.218956 47.482538 5.111765 14.268359 -14.905747 51.947378 3.007983 22.646913 15.218198 -1.647931 
0.010006 0.476923 1.002538 174.868979 -1.665079 86.399358 4.293557 3.437344 3.362820 -5.246377 -0.908741 5.843266 -2.685323 6.540493 -8.353172 0.000000 -0.000000 0.000000 -5.563239 -1.964648 -0.559413 0.594685 -1.017217 13.931760 6.958339 -3.518449 -11.145935 0.000000 -0.000000 0.000000 -0.114708 -0.462851 7.443050 1.217543 -1.840480 -1.328725 -1.019920 -0.216924 1.279637 3.416737 4.596043 -8.848204 -1.022444 -1.576650 4.217400 -26.462438 9.055598 -2.595845 -50.369019 -6.416076 9.997867 0.993563 -35.688290 10.072953 -12.497938 -20.370162 -10.822068 26.417113 -8.775679 -3.134984 49.651563 4.680470 14.625587 -14.557353 48.985070 2.620753 22.015180 14.662855 -2.465588 
0.009015 0.478082 1.002429 175.097462 -1.540467 86.536816 4.382497 3.350435 3.252554 -5.306174 -1.023475 5.840637 -2.577551 6.444883 -8.372757 0.000000 -0.000000 0.000000 -5.546380 -2.009484 -0.387288 0.657388 -1.242742 13.555078 6.928938 -3.528969 -11.096474 0.000000 -0.000000 0.000000 -0.499119 -0.449426 6.858793 1.398198 -1.824038 -1.487156 -0.914485 -0.188353 1.329200 3.510126 4.687858 -8.889235 -1.047252 -1.639201 4.228556 -26.469587 9.545380 -2.688818 -50.885691 -6.544855 10.047474 1.564521 -35.552863 10.031830 -12.527710 -20.417356 -10.944312 26.757674 -9.019494 -3.110919 50.269009 4.620625 14.953247 -14.397967 47.946202 3.603874 22.136392 14.341326 -1.285608 
0.007716 0.479596 1.002429 175.403551 -1.313458 86.569681 4.553963 3.084042 3.320711 -5.343176 -1.017222 5.720661 -2.552215 6.405880 -8.428025 0.000000 -0.000000 0.000000 -5.420598 -2.076758 -0.000991 0.653384 -1.516225 13.035153 6.975055 -3.508365 -10.953254 0.000000 -0.000000 0.000000 -0.729781 -0.399166 6.314113 1.431316 -1.852555 -1.619316 -0.849620 -0.144179 1.302628 3.719887 4.762398 -8.938343 -0.973184 -1.720104 4.109532 -26.464756 10.156398 -2.950100 -51.443338 -6.503350 9.753343 2.678282 -35.560568 9.250330 -12.194162 -19.827384 -10.605859 26.936586 -9.325300 -3.264813 51.389344 4.512196 15.167467 -14.626866 46.776826 3.969509 21.875094 13.767645 -0.439864 
0.006578 0.480776 1.002453 175.555389 -1.147658 86.575102 4.680807 2.830772 3.476385 -5.412110 -1.091784 5.475707 -2.471692 6.451220 -8.432582 0.000000 -0.000000 0.000000 -5.370972 -2.195208 0.247370 0.703125 -1.601009 12.753180 7.079526 -3.410928 -10.861154 0.000000 -0.000000 0.000000 -1.014002 -0.273792 6.017959 1.475062 -1.839681 -1.983168 -0.762569 -0.123831 1.338342 3.879839 4.731572 -9.030260 -0.893344 -1.840739 3.940089 -26.509219 10.938692 -3.109372 -51.643401 -6.448277 9.249329 3.756693 -36.095582 7.874252 -11.183500 -19.162164 -11.101255 27.227773 -9.751741 -3.596839 52.141615 4.456814 15.130168 -15.650695 46.135100 2.439231 20.916871 13.492107 -0.858083 
0.005292 0.481768 1.002588 175.773027 -0.963156 86.523166 4.853822 2.732460 3.400965 -5.490755 -1.074544 5.736527 -2.456672 6.259577 -8.487035 0.000000 -0.000000 0.000000 -5.385027 -2.277191 0.651564 0.860774 -1.839143 12.318897 7.178659 -3.309339 -10.715066 0.000000 -0.000000 0.000000 -1.161068 -0.248500 5.817723 1.541270 -1.830037 -2.175471 -0.757340 -0.089581 1.297899 4.078618 4.800481 -9.241775 -0.888307 -2.020767 3.863626 -26.712175 11.697681 -3.251464 -51.273522 -6.282941 8.718364 4.980175 -37.516229 6.259057 -10.568047 -19.329021 -11.910315 27.663220 -10.220900 -3.779018 52.312722 4.449569 14.821957 -17.766286 46.743830 -0.271249 19.581388 13.803986 -1.430044 
0.003961 0.483035 1.002642 175.734736 -0.945514 86.440998 4.795786 2.783938 3.597778 -5.494390 -1.082010 5.656113 -2.497564 6.120431 -8.545031 0.000000 -0.000000 0.000000 -5.517347 -2.190991 1.009726 0.874647 -1.980423 11.990946 7.292804 -3.143133 -10.610468 0.000000 -0.000000 0.000000 -1.425677 -0.164748 5.506959 1.504262 -1.689651 -2.018870 -0.691596 0.019297 1.148089 4.119775 4.734415 -9.314078 -0.729965 -1.959106 3.517987 -26.839423 12.297160 -3.210175 -50.775655 -5.674155 8.259065 7.467919 -41.069017 4.085750 -9.613567 -19.774640 -13.141736 27.839956 -10.512024 -3.886033 51.986272 4.168023 14.480785 -20.497811 49.230193 -2.672644 18.729151 14.090737 -1.565619 
0.002420 0.483789 1.002490 175.707730 -0.956339 86.535851 4.683371 2.708883 3.533852 -5.524335 -0.834909 5.659176 -2.291379 5.952160 -8.628231 0.000000 -0.000000 0.000000 -5.665169 -2.512786 1.094165 0.791746 -2.020984 11.702706 7.412074 -2.813740 -10.341372 0.000000 -0.000000 0.000000 -1.667292 0.021304 5.023840 1.349069 -1.522464 -1.771846 -0.700920 0.196186 1.041345 4.324272 4.434336 -9.530558 -0.540766 -1.859590 2.821373 -26.870956 13.500806 -3.233758 -49.484946 -4.876142 7.994808 10.772013 -49.569054 0.549066 -8.766994 -20.695078 -16.184081 27.709228 -11.153946 -4.165730 50.970441 3.977180 14.197038 -25.589581 54.653400 -7.370641 19.096204 15.005061 -1.818705 
0.001232 0.483978 1.002448 175.801381 -0.912209 86.588007 4.589186 2.322388 3.507438 -5.465323 -0.598415 5.547289 -2.402226 5.974358 -8.574757 0.000000 -0.000000 0.000000 -5.706954 -2.641056 1.176992 0.718863 -2.103295 11.443401 7.783557 -2.715281 -10.067569 0.000000 -0.000000 0.000000 -1.809794 0.099421 4.569376 1.354219 -1.298454 -1.381789 -0.817207 0.503957 1.146423 4.350454 4.289509 -9.993178 -0.318999 -2.291582 2.097739 -26.201012 14.572326 -3.675411 -47.769536 -4.922130 8.995454 10.225877 -58.732763 0.796988 -10.899225 -22.930350 -20.593543 27.072723 -12.117618 -4.865392 49.497454 3.843090 14.481129 -30.591303 61.337618 -12.075705 22.755125 15.905914 -3.107237 
0.000202 0.484205 1.002599 176.047016 -0.890693 86.548432 4.501334 1.906442 3.475530 -5.496059 -0.420606 5.600416 -2.338528 6.052691 -8.639582 0.000000 -0.000000 0.000000 -5.728255 -2.768855 1.267346 0.665900 -2.181484 11.372332 8.004687 -2.833569 -10.018110 0.000000 -0.000000 0.000000 -1.976416 0.341766 4.222262 1.307421 -1.077178 -1.203119 -0.799530 0.616074 1.210185 4.205332 3.900855 -9.885433 -0.128995 -2.417695 1.394247 -25.109754 14.493181 -3.637249 -46.003284 -5.163380 10.409451 8.707387 -68.135630 1.839871 -10.885277 -24.510882 -24.912578 25.889337 -12.328248 -5.063926 47.368730 3.617647 14.788228 -37.780037 68.412618 -19.187405 23.979994 16.877264 -4.336103 
-0.000777 0.484882 1.002749 176.465107 -0.914407 86.341102 4.416464 1.687624 3.715672 -5.505487 -0.281655 5.516071 -2.377598 5.813932 -8.730877 0.000000 -0.000000 0.000000 -5.853030 -2.951004 1.678176 0.648206 -2.425276 11.172118 8.285894 -2.812884 -9.971366 0.000000 -0.000000 0.000000 -2.185434 0.592554 3.872081 1.243269 -1.130432 -0.825090 -0.800048 0.606164 1.146919 4.102670 3.825536 -9.858206 0.027806 -2.385948 1.414488 -24.390406 13.320814 -3.632542 -44.070011 -5.822758 11.818452 6.220260 -76.781771 4.547159 -11.360210 -26.398859 -25.656974 24.817195 -11.635914 -5.176730 44.501908 3.596770 15.090983 -49.854170 74.999624 -30.940130 25.575409 17.975535 -4.676968 
-0.001530 0.485669 1.002577 177.153730 -0.923136 86.273630 4.314489 1.344614 3.821554 -5.432228 -0.294586 5.312474 -2.391616 5.584600 -8.697143 0.000000 -0.000000 0.000000 -5.922914 -3.120050 2.072113 0.651530 -2.753828 10.836565 8.503966 -3.028928 -9.862598 0.000000 -0.000000 0.000000 -2.438674 0.527332 3.591686 1.178108 -1.433122 -0.768809 -0.817893 0.579631 0.879026 4.010215 3.863737 -9.447594 0.299461 -2.011288 1.522589 -23.473591 11.622879 -3.445272 -42.266793 -6.529372 13.842035 -7.457344 -84.324747 18.340891 -10.883978 -27.936875 -27.265400 23.457178 -10.394024 -5.100903 41.542731 3.956102 15.896697 -69.856424 80.143869 -51.017379 26.001500 19.182800 -5.568463 
